<mxfile host="app.diagrams.net" agent="Mozilla/5.0 (Windows NT 10.0; Win64; x64) AppleWebKit/537.36 (KHTML, like Gecko) Chrome/129.0.0.0 Safari/537.36 Edg/129.0.0.0" version="24.7.17">
  <diagram name="第 1 页" id="VzjTm3_P3slJNtYkNniI">
    <mxGraphModel dx="1213" dy="627" grid="0" gridSize="10" guides="1" tooltips="1" connect="1" arrows="1" fold="1" page="1" pageScale="1" pageWidth="827" pageHeight="1169" math="0" shadow="0">
      <root>
        <mxCell id="0" />
        <mxCell id="1" parent="0" />
        <mxCell id="4Q1UM7pvw_9Va17lVviG-1" value="&lt;b&gt;缓存命中&lt;/b&gt;" style="text;html=1;align=center;verticalAlign=middle;whiteSpace=wrap;rounded=0;fillColor=#dae8fc;strokeColor=#6c8ebf;" vertex="1" parent="1">
          <mxGeometry x="180" y="70" width="70" height="40" as="geometry" />
        </mxCell>
        <mxCell id="4Q1UM7pvw_9Va17lVviG-2" value="&lt;b&gt;驱逐分配&lt;/b&gt;" style="text;html=1;align=center;verticalAlign=middle;whiteSpace=wrap;rounded=0;fillColor=#dae8fc;strokeColor=#6c8ebf;" vertex="1" parent="1">
          <mxGeometry x="440" y="70" width="70" height="40" as="geometry" />
        </mxCell>
        <mxCell id="4Q1UM7pvw_9Va17lVviG-4" value="" style="shape=curlyBracket;whiteSpace=wrap;html=1;rounded=1;labelPosition=left;verticalLabelPosition=middle;align=right;verticalAlign=middle;" vertex="1" parent="1">
          <mxGeometry x="110" y="120" width="20" height="60" as="geometry" />
        </mxCell>
        <mxCell id="4Q1UM7pvw_9Va17lVviG-5" value="&lt;i&gt;&lt;b&gt;SetFrame&lt;/b&gt;&lt;/i&gt;在&lt;i&gt;bufferpool&lt;/i&gt;中&lt;i&gt;pin&lt;/i&gt;住" style="text;html=1;align=center;verticalAlign=middle;whiteSpace=wrap;rounded=0;" vertex="1" parent="1">
          <mxGeometry x="152.5" y="140" width="125" height="30" as="geometry" />
        </mxCell>
        <mxCell id="4Q1UM7pvw_9Va17lVviG-6" value="bpm_lock" style="text;html=1;align=center;verticalAlign=middle;whiteSpace=wrap;rounded=0;" vertex="1" parent="1">
          <mxGeometry x="40" y="135" width="60" height="30" as="geometry" />
        </mxCell>
        <mxCell id="4Q1UM7pvw_9Va17lVviG-7" value="" style="shape=curlyBracket;whiteSpace=wrap;html=1;rounded=1;labelPosition=left;verticalLabelPosition=middle;align=right;verticalAlign=middle;" vertex="1" parent="1">
          <mxGeometry x="110" y="220" width="20" height="80" as="geometry" />
        </mxCell>
        <mxCell id="4Q1UM7pvw_9Va17lVviG-8" value="io_lock" style="text;html=1;align=center;verticalAlign=middle;whiteSpace=wrap;rounded=0;" vertex="1" parent="1">
          <mxGeometry x="40" y="235" width="60" height="30" as="geometry" />
        </mxCell>
        <mxCell id="4Q1UM7pvw_9Va17lVviG-9" value="wait I/O" style="text;html=1;align=center;verticalAlign=middle;whiteSpace=wrap;rounded=0;" vertex="1" parent="1">
          <mxGeometry x="177.5" y="220" width="60" height="30" as="geometry" />
        </mxCell>
        <mxCell id="4Q1UM7pvw_9Va17lVviG-10" value="检查&lt;b&gt;frame&lt;/b&gt;上的&lt;b&gt;io_done_&lt;/b&gt;标志" style="text;html=1;align=center;verticalAlign=middle;whiteSpace=wrap;rounded=0;" vertex="1" parent="1">
          <mxGeometry x="152.5" y="250" width="110" height="50" as="geometry" />
        </mxCell>
        <mxCell id="4Q1UM7pvw_9Va17lVviG-11" value="" style="shape=curlyBracket;whiteSpace=wrap;html=1;rounded=1;labelPosition=left;verticalLabelPosition=middle;align=right;verticalAlign=middle;" vertex="1" parent="1">
          <mxGeometry x="110" y="330" width="20" height="80" as="geometry" />
        </mxCell>
        <mxCell id="4Q1UM7pvw_9Va17lVviG-13" value="rwlock" style="text;html=1;align=center;verticalAlign=middle;whiteSpace=wrap;rounded=0;" vertex="1" parent="1">
          <mxGeometry x="40" y="355" width="60" height="30" as="geometry" />
        </mxCell>
        <mxCell id="4Q1UM7pvw_9Va17lVviG-14" value="构造&lt;b&gt;GuardPage&lt;/b&gt;" style="text;html=1;align=center;verticalAlign=middle;whiteSpace=wrap;rounded=0;" vertex="1" parent="1">
          <mxGeometry x="157.5" y="340" width="80" height="30" as="geometry" />
        </mxCell>
        <mxCell id="4Q1UM7pvw_9Va17lVviG-15" value="&lt;i style=&quot;&quot;&gt;&lt;b&gt;drop() u&lt;/b&gt;npin，&lt;/i&gt;为0设置可驱逐" style="text;html=1;align=center;verticalAlign=middle;whiteSpace=wrap;rounded=0;" vertex="1" parent="1">
          <mxGeometry x="137.5" y="380" width="140" height="30" as="geometry" />
        </mxCell>
        <mxCell id="4Q1UM7pvw_9Va17lVviG-16" value="" style="shape=curlyBracket;whiteSpace=wrap;html=1;rounded=1;labelPosition=left;verticalLabelPosition=middle;align=right;verticalAlign=middle;" vertex="1" parent="1">
          <mxGeometry x="390" y="120" width="20" height="110" as="geometry" />
        </mxCell>
        <mxCell id="4Q1UM7pvw_9Va17lVviG-17" value="bpm_lock" style="text;html=1;align=center;verticalAlign=middle;whiteSpace=wrap;rounded=0;" vertex="1" parent="1">
          <mxGeometry x="320" y="135" width="60" height="30" as="geometry" />
        </mxCell>
        <mxCell id="4Q1UM7pvw_9Va17lVviG-18" value="" style="shape=curlyBracket;whiteSpace=wrap;html=1;rounded=1;labelPosition=left;verticalLabelPosition=middle;align=right;verticalAlign=middle;" vertex="1" parent="1">
          <mxGeometry x="390" y="260" width="20" height="100" as="geometry" />
        </mxCell>
        <mxCell id="4Q1UM7pvw_9Va17lVviG-19" value="io_lock" style="text;html=1;align=center;verticalAlign=middle;whiteSpace=wrap;rounded=0;" vertex="1" parent="1">
          <mxGeometry x="325" y="285" width="60" height="30" as="geometry" />
        </mxCell>
        <mxCell id="4Q1UM7pvw_9Va17lVviG-20" value="" style="shape=curlyBracket;whiteSpace=wrap;html=1;rounded=1;labelPosition=left;verticalLabelPosition=middle;align=right;verticalAlign=middle;" vertex="1" parent="1">
          <mxGeometry x="390" y="385" width="20" height="80" as="geometry" />
        </mxCell>
        <mxCell id="4Q1UM7pvw_9Va17lVviG-21" value="rwlock" style="text;html=1;align=center;verticalAlign=middle;whiteSpace=wrap;rounded=0;" vertex="1" parent="1">
          <mxGeometry x="330" y="410" width="60" height="30" as="geometry" />
        </mxCell>
        <mxCell id="4Q1UM7pvw_9Va17lVviG-22" value="请求Evict分配frame" style="text;html=1;align=center;verticalAlign=middle;whiteSpace=wrap;rounded=0;" vertex="1" parent="1">
          <mxGeometry x="430" y="120" width="80" height="30" as="geometry" />
        </mxCell>
        <mxCell id="4Q1UM7pvw_9Va17lVviG-23" value="修改页表" style="text;html=1;align=center;verticalAlign=middle;whiteSpace=wrap;rounded=0;" vertex="1" parent="1">
          <mxGeometry x="440" y="150" width="60" height="30" as="geometry" />
        </mxCell>
        <mxCell id="4Q1UM7pvw_9Va17lVviG-24" value="&lt;b&gt;&lt;i&gt;SetFrame&lt;/i&gt;&lt;/b&gt;" style="text;html=1;align=center;verticalAlign=middle;whiteSpace=wrap;rounded=0;" vertex="1" parent="1">
          <mxGeometry x="440" y="170" width="60" height="30" as="geometry" />
        </mxCell>
        <mxCell id="4Q1UM7pvw_9Va17lVviG-25" value="修改&lt;i&gt;io_done_&lt;/i&gt;启动IO" style="text;html=1;align=center;verticalAlign=middle;whiteSpace=wrap;rounded=0;" vertex="1" parent="1">
          <mxGeometry x="425" y="200" width="90" height="30" as="geometry" />
        </mxCell>
        <mxCell id="4Q1UM7pvw_9Va17lVviG-26" value="刷脏(旧page)" style="text;html=1;align=center;verticalAlign=middle;whiteSpace=wrap;rounded=0;" vertex="1" parent="1">
          <mxGeometry x="437" y="255" width="90" height="30" as="geometry" />
        </mxCell>
        <mxCell id="4Q1UM7pvw_9Va17lVviG-27" value="读盘(新page)" style="text;html=1;align=center;verticalAlign=middle;whiteSpace=wrap;rounded=0;" vertex="1" parent="1">
          <mxGeometry x="442" y="280" width="80" height="30" as="geometry" />
        </mxCell>
        <mxCell id="4Q1UM7pvw_9Va17lVviG-28" value="修改&lt;i&gt;io_done_结束&lt;/i&gt;IO" style="text;html=1;align=center;verticalAlign=middle;whiteSpace=wrap;rounded=0;" vertex="1" parent="1">
          <mxGeometry x="437" y="310" width="90" height="30" as="geometry" />
        </mxCell>
        <mxCell id="4Q1UM7pvw_9Va17lVviG-29" value="&lt;i&gt;&lt;b&gt;cv_.notify_all()&lt;/b&gt;&lt;/i&gt;" style="text;html=1;align=center;verticalAlign=middle;whiteSpace=wrap;rounded=0;" vertex="1" parent="1">
          <mxGeometry x="435" y="340" width="80" height="30" as="geometry" />
        </mxCell>
        <mxCell id="4Q1UM7pvw_9Va17lVviG-30" value="构造&lt;b&gt;GuardPage&lt;/b&gt;" style="text;html=1;align=center;verticalAlign=middle;whiteSpace=wrap;rounded=0;" vertex="1" parent="1">
          <mxGeometry x="437" y="390" width="80" height="30" as="geometry" />
        </mxCell>
        <mxCell id="4Q1UM7pvw_9Va17lVviG-31" value="&lt;i style=&quot;&quot;&gt;&lt;b&gt;drop() u&lt;/b&gt;npin，&lt;/i&gt;为0设置可驱逐" style="text;html=1;align=center;verticalAlign=middle;whiteSpace=wrap;rounded=0;" vertex="1" parent="1">
          <mxGeometry x="405" y="435" width="140" height="30" as="geometry" />
        </mxCell>
        <mxCell id="4Q1UM7pvw_9Va17lVviG-32" value="" style="endArrow=none;html=1;rounded=0;strokeWidth=2;strokeColor=#FF0000;" edge="1" parent="1">
          <mxGeometry width="50" height="50" relative="1" as="geometry">
            <mxPoint x="60" y="199" as="sourcePoint" />
            <mxPoint x="301" y="199" as="targetPoint" />
          </mxGeometry>
        </mxCell>
        <mxCell id="4Q1UM7pvw_9Va17lVviG-34" value="" style="endArrow=none;html=1;rounded=0;strokeWidth=2;strokeColor=#FF0000;" edge="1" parent="1">
          <mxGeometry width="50" height="50" relative="1" as="geometry">
            <mxPoint x="50" y="324.5" as="sourcePoint" />
            <mxPoint x="291" y="324.5" as="targetPoint" />
          </mxGeometry>
        </mxCell>
        <mxCell id="4Q1UM7pvw_9Va17lVviG-35" value="" style="endArrow=none;html=1;rounded=0;strokeWidth=2;strokeColor=#FF0000;" edge="1" parent="1">
          <mxGeometry width="50" height="50" relative="1" as="geometry">
            <mxPoint x="325" y="249" as="sourcePoint" />
            <mxPoint x="566" y="249" as="targetPoint" />
          </mxGeometry>
        </mxCell>
        <mxCell id="4Q1UM7pvw_9Va17lVviG-36" value="" style="endArrow=none;html=1;rounded=0;strokeWidth=2;strokeColor=#FF0000;" edge="1" parent="1">
          <mxGeometry width="50" height="50" relative="1" as="geometry">
            <mxPoint x="320" y="370" as="sourcePoint" />
            <mxPoint x="561" y="370" as="targetPoint" />
          </mxGeometry>
        </mxCell>
        <mxCell id="4Q1UM7pvw_9Va17lVviG-37" value="" style="endArrow=none;html=1;rounded=0;strokeWidth=2;strokeColor=#FF0000;" edge="1" parent="1">
          <mxGeometry width="50" height="50" relative="1" as="geometry">
            <mxPoint x="21.5" y="40" as="sourcePoint" />
            <mxPoint x="80" y="40" as="targetPoint" />
          </mxGeometry>
        </mxCell>
        <mxCell id="4Q1UM7pvw_9Va17lVviG-38" value="插队风险" style="text;html=1;align=center;verticalAlign=middle;whiteSpace=wrap;rounded=0;" vertex="1" parent="1">
          <mxGeometry x="20" y="10" width="60" height="30" as="geometry" />
        </mxCell>
      </root>
    </mxGraphModel>
  </diagram>
</mxfile>
